<svg width="481" height="178" viewBox="0 0 481 178" fill="none" xmlns="http://www.w3.org/2000/svg">
<path d="M62.0425 125.344L69.0027 127.288L73.8185 128.177L79.1676 128.894L84.7818 129.265L90.3917 128.94L95.7322 128.266L101.072 127.419L108 125.534" stroke="#005AD1" stroke-opacity="0.8" stroke-width="10"/>
<path d="M85.2264 40L107.939 42.8302L120.801 47.6415L124.358 51.3208L126 55H45L48.2838 51.3208L53.2095 47.6415L63.8818 42.8302L85.2264 40Z" fill="#005AD1" fill-opacity="0.8"/>
<line x1="60.437" y1="129.056" x2="109.493" y2="129.05" stroke="black" stroke-opacity="0.8"/>
<ellipse cx="86" cy="128.5" rx="7" ry="1.5" fill="black" fill-opacity="0.8"/>
<path d="M92.2239 128.362C92.3288 128.415 92.4009 128.462 92.4482 128.5C92.4009 128.538 92.3288 128.585 92.2239 128.638C91.9253 128.789 91.4606 128.94 90.845 129.072C89.6219 129.334 87.9087 129.5 86 129.5C84.0913 129.5 82.3781 129.334 81.155 129.072C80.5394 128.94 80.0747 128.789 79.7761 128.638C79.6712 128.585 79.5991 128.538 79.5518 128.5C79.5991 128.462 79.6712 128.415 79.7761 128.362C80.0747 128.211 80.5394 128.06 81.155 127.928C82.3781 127.666 84.0913 127.5 86 127.5C87.9087 127.5 89.6219 127.666 90.845 127.928C91.4606 128.06 91.9253 128.211 92.2239 128.362ZM92.5134 128.563C92.5136 128.564 92.5138 128.564 92.5138 128.564L92.5134 128.563Z" stroke="black" stroke-opacity="0.8"/>
<g style="mix-blend-mode:exclusion">
<mask id="mask0_0_1" style="mask-type:luminance" maskUnits="userSpaceOnUse" x="81" y="117" width="9" height="12">
<path d="M81 117H89.7707V128.979H81V117Z" fill="white"/>
</mask>
<g mask="url(#mask0_0_1)">
<mask id="mask1_0_1" style="mask-type:luminance" maskUnits="userSpaceOnUse" x="81" y="117" width="9" height="12">
<path d="M83.969 128.976C82.5544 128.976 81 127.104 81 125.085C81 122.989 82.1339 121.683 82.1339 121.683C82.1339 122.727 82.5927 123.53 83.2559 123.53C82.9284 122.848 82.8296 122.256 82.8296 121.831C82.8296 119.135 86.0805 118.644 86.0805 117.003C86.0805 117.003 87.0663 117.702 87.0663 118.5C87.0663 119.408 86.7982 118.985 86.7982 120.233C86.7982 121.157 88.5938 121.757 88.5938 122.864C88.5938 123.453 88.3195 124.253 88.0871 124.491C88.8814 124.491 89.2225 123.001 89.2225 122.578C89.4698 123.031 89.7707 123.649 89.7707 125.047C89.7707 126.75 88.728 128.976 86.648 128.976C86.648 128.976 88.2358 128.125 88.2358 126.731C88.2358 125.851 87.8732 125.574 87.6485 125.344C87.6232 126.383 87.2901 126.966 86.6656 126.966C86.2751 126.966 85.7142 126.407 85.7142 125.796C85.7142 125.25 86.5182 124.867 86.5182 123.738C86.5182 122.334 85.2757 121.83 85.2757 121.83C85.4163 122.089 85.526 122.355 85.526 122.989C85.526 124.105 83.9236 124.415 83.9236 125.534C83.9236 126.142 84.1974 126.812 84.1974 126.812C83.7814 126.812 83.0465 126.133 83.0465 125.234C82.868 125.463 82.5349 125.711 82.5349 126.506C82.5349 127.732 83.969 128.976 83.969 128.976Z" fill="white"/>
</mask>
<g mask="url(#mask1_0_1)">
<mask id="mask2_0_1" style="mask-type:luminance" maskUnits="userSpaceOnUse" x="81" y="117" width="9" height="12">
<path d="M83.969 128.976C82.5544 128.976 81 127.104 81 125.085C81 122.989 82.1339 121.683 82.1339 121.683C82.1339 122.727 82.5927 123.53 83.2559 123.53C82.9284 122.848 82.8296 122.256 82.8296 121.831C82.8296 119.135 86.0805 118.644 86.0805 117.003C86.0805 117.003 87.0663 117.702 87.0663 118.5C87.0663 119.408 86.7982 118.985 86.7982 120.233C86.7982 121.157 88.5938 121.757 88.5938 122.864C88.5938 123.453 88.3195 124.253 88.0871 124.491C88.8814 124.491 89.2225 123.001 89.2225 122.578C89.4698 123.031 89.7707 123.649 89.7707 125.047C89.7707 126.75 88.728 128.976 86.648 128.976C86.648 128.976 88.2358 128.125 88.2358 126.731C88.2358 125.851 87.8732 125.574 87.6485 125.344C87.6232 126.383 87.2901 126.966 86.6656 126.966C86.2751 126.966 85.7142 126.407 85.7142 125.796C85.7142 125.25 86.5182 124.867 86.5182 123.738C86.5182 122.334 85.2757 121.83 85.2757 121.83C85.4163 122.089 85.526 122.355 85.526 122.989C85.526 124.105 83.9236 124.415 83.9236 125.534C83.9236 126.142 84.1974 126.812 84.1974 126.812C83.7814 126.812 83.0465 126.133 83.0465 125.234C82.868 125.463 82.5349 125.711 82.5349 126.506C82.5349 127.732 83.969 128.976 83.969 128.976Z" fill="white"/>
</mask>
<g mask="url(#mask2_0_1)">
<path d="M89.7707 117.003H81V128.976H89.7707V117.003Z" fill="#FF1D25"/>
</g>
</g>
</g>
</g>
<g filter="url(#filter0_d_0_1)">
<path d="M45 55H126L123.148 74.0385L118.585 91.9231L109.458 130L102.042 127.404L96.338 125.962L90.6338 124.808L84.6444 124.231L78.6549 124.808L72.9507 125.962L67.8169 127.404L60.4014 130L51.2747 91.3462L46.7113 72.8846L45 55Z" fill="#005AD1" fill-opacity="0.8" shape-rendering="crispEdges"/>
</g>
<g filter="url(#filter1_d_0_1)">
<path d="M125.893 56.1733L113.641 52.8537L105.163 51.3354L95.7476 50.1095L85.8654 49.4743L75.9913 50.0245L66.5917 51.1695L57.194 52.6109L45 55.8185" stroke="#00D135" stroke-opacity="0.8" shape-rendering="crispEdges"/>
</g>
<g filter="url(#filter2_d_0_1)">
<path d="M121.01 81.1165L109.997 77.8113L102.376 76.303L93.9111 75.0881L85.0261 74.4645L76.147 75.0263L67.6937 76.1823L59.242 77.6347L48.2737 80.8566" stroke="#00D135" stroke-opacity="0.8" shape-rendering="crispEdges"/>
</g>
<g filter="url(#filter3_d_0_1)">
<path d="M117.859 95.0798L107.864 91.7865L100.947 90.2864L93.2626 89.0806L85.1967 88.4665L77.1349 89.0378L69.4592 90.2028L61.7844 91.6642L51.8231 94.8978" stroke="#00D135" stroke-opacity="0.8" shape-rendering="crispEdges"/>
</g>
<path d="M106 109.09C106 125.48 95.7335 126.896 85.1552 123.504C75.1488 126.33 66 125.48 66 109.09C66 92.6998 76.4709 78 85.1552 78C93.8396 78 106 92.6998 106 109.09Z" fill="#F2E88F" fill-opacity="0.05"/>
<path d="M111 102.304C111 126.714 97.6535 128.823 83.9018 123.772C70.8934 127.981 59 126.714 59 102.304C59 77.8933 72.6121 56 83.9018 56C95.1915 56 111 77.8933 111 102.304Z" fill="#F2E994" fill-opacity="0.05"/>
<path d="M102 110.798C102 124.398 93.5301 125.573 84.8031 122.759C76.5477 125.104 69 124.398 69 110.798C69 97.1977 77.6385 85 84.8031 85C91.9677 85 102 97.1977 102 110.798Z" fill="#EAF28F" fill-opacity="0.05"/>
<path d="M99 114.183C99 124.296 92.5834 125.17 85.972 123.077C79.718 124.821 74 124.296 74 114.183C74 104.07 80.5443 95 85.972 95C91.3997 95 99 104.07 99 114.183Z" fill="#E3F13D" fill-opacity="0.05"/>
<path d="M146.392 74.304C152.088 74.304 156.472 75.792 159.544 78.768C162.648 81.744 164.2 85.888 164.2 91.2C164.2 96.512 162.648 100.64 159.544 103.584C156.472 106.528 152.088 108 146.392 108H136.936V74.304H146.392ZM146.392 106.176C151.48 106.176 155.352 104.864 158.008 102.24C160.664 99.584 161.992 95.904 161.992 91.2C161.992 86.464 160.664 82.768 158.008 80.112C155.352 77.456 151.48 76.128 146.392 76.128H139.096V106.176H146.392ZM171.837 76.128C171.325 76.128 170.893 75.968 170.541 75.648C170.189 75.296 170.013 74.832 170.013 74.256C170.013 73.712 170.189 73.264 170.541 72.912C170.893 72.56 171.325 72.384 171.837 72.384C172.349 72.384 172.781 72.56 173.133 72.912C173.485 73.264 173.661 73.712 173.661 74.256C173.661 74.832 173.485 75.296 173.133 75.648C172.781 75.968 172.349 76.128 171.837 76.128ZM172.893 81.936V108H170.733V81.936H172.893ZM182.971 72.48V108H180.811V72.48H182.971ZM214.361 93.216C214.361 94.368 214.329 95.232 214.265 95.808H191.753C191.817 98.144 192.329 100.112 193.289 101.712C194.249 103.312 195.513 104.512 197.081 105.312C198.649 106.112 200.361 106.512 202.217 106.512C204.777 106.512 206.921 105.888 208.649 104.64C210.377 103.36 211.465 101.632 211.913 99.456H214.169C213.657 102.112 212.345 104.272 210.233 105.936C208.121 107.568 205.449 108.384 202.217 108.384C199.785 108.384 197.609 107.84 195.689 106.752C193.769 105.664 192.265 104.112 191.177 102.096C190.089 100.048 189.545 97.664 189.545 94.944C189.545 92.224 190.073 89.856 191.129 87.84C192.217 85.824 193.721 84.288 195.641 83.232C197.561 82.144 199.753 81.6 202.217 81.6C204.713 81.6 206.873 82.144 208.697 83.232C210.553 84.288 211.961 85.712 212.921 87.504C213.881 89.264 214.361 91.168 214.361 93.216ZM212.201 94.032C212.297 91.728 211.881 89.776 210.953 88.176C210.057 86.576 208.825 85.392 207.257 84.624C205.689 83.824 203.993 83.424 202.169 83.424C200.345 83.424 198.649 83.824 197.081 84.624C195.545 85.392 194.281 86.576 193.289 88.176C192.329 89.776 191.817 91.728 191.753 94.032H212.201ZM234.425 108L223.049 96.048V108H220.889V72.48H223.049V93.744L234.233 81.936H237.257L224.633 94.896L237.401 108H234.425ZM272.765 74.304V76.128H257.549V90.192H270.845V92.016H257.549V108H255.389V74.304H272.765ZM301.971 93.216C301.971 94.368 301.939 95.232 301.875 95.808H279.363C279.427 98.144 279.939 100.112 280.898 101.712C281.859 103.312 283.123 104.512 284.691 105.312C286.259 106.112 287.971 106.512 289.827 106.512C292.387 106.512 294.531 105.888 296.259 104.64C297.987 103.36 299.075 101.632 299.523 99.456H301.779C301.267 102.112 299.955 104.272 297.843 105.936C295.731 107.568 293.059 108.384 289.827 108.384C287.395 108.384 285.219 107.84 283.299 106.752C281.379 105.664 279.875 104.112 278.787 102.096C277.699 100.048 277.155 97.664 277.155 94.944C277.155 92.224 277.683 89.856 278.739 87.84C279.827 85.824 281.331 84.288 283.251 83.232C285.171 82.144 287.363 81.6 289.827 81.6C292.323 81.6 294.483 82.144 296.307 83.232C298.163 84.288 299.571 85.712 300.531 87.504C301.491 89.264 301.971 91.168 301.971 93.216ZM299.811 94.032C299.907 91.728 299.491 89.776 298.562 88.176C297.667 86.576 296.435 85.392 294.867 84.624C293.299 83.824 291.603 83.424 289.779 83.424C287.955 83.424 286.259 83.824 284.691 84.624C283.155 85.392 281.891 86.576 280.898 88.176C279.939 89.776 279.427 91.728 279.363 94.032H299.811ZM320.259 81.408C323.363 81.408 325.891 82.368 327.843 84.288C329.795 86.176 330.771 88.992 330.771 92.736V108H328.659V92.88C328.659 89.776 327.875 87.408 326.307 85.776C324.739 84.112 322.611 83.28 319.923 83.28C317.107 83.28 314.851 84.176 313.155 85.968C311.491 87.76 310.659 90.416 310.659 93.936V108H308.499V81.936H310.659V87.456C311.395 85.504 312.611 84.016 314.307 82.992C316.035 81.936 318.019 81.408 320.259 81.408ZM361.877 93.216C361.877 94.368 361.845 95.232 361.781 95.808H339.269C339.333 98.144 339.845 100.112 340.805 101.712C341.765 103.312 343.029 104.512 344.597 105.312C346.165 106.112 347.877 106.512 349.733 106.512C352.293 106.512 354.437 105.888 356.165 104.64C357.893 103.36 358.981 101.632 359.429 99.456H361.685C361.173 102.112 359.861 104.272 357.749 105.936C355.637 107.568 352.965 108.384 349.733 108.384C347.301 108.384 345.125 107.84 343.205 106.752C341.285 105.664 339.781 104.112 338.693 102.096C337.605 100.048 337.061 97.664 337.061 94.944C337.061 92.224 337.589 89.856 338.645 87.84C339.733 85.824 341.237 84.288 343.157 83.232C345.077 82.144 347.269 81.6 349.733 81.6C352.229 81.6 354.389 82.144 356.213 83.232C358.069 84.288 359.477 85.712 360.437 87.504C361.397 89.264 361.877 91.168 361.877 93.216ZM359.717 94.032C359.813 91.728 359.397 89.776 358.469 88.176C357.573 86.576 356.341 85.392 354.773 84.624C353.205 83.824 351.509 83.424 349.685 83.424C347.861 83.424 346.165 83.824 344.597 84.624C343.061 85.392 341.797 86.576 340.805 88.176C339.845 89.776 339.333 91.728 339.269 94.032H359.717ZM370.565 87.312C371.205 85.392 372.341 83.936 373.973 82.944C375.605 81.92 377.685 81.408 380.213 81.408V83.664H379.493C376.933 83.664 374.805 84.4 373.109 85.872C371.413 87.312 370.565 89.68 370.565 92.976V108H368.405V81.936H370.565V87.312ZM386.29 76.128C385.778 76.128 385.346 75.968 384.994 75.648C384.642 75.296 384.466 74.832 384.466 74.256C384.466 73.712 384.642 73.264 384.994 72.912C385.346 72.56 385.778 72.384 386.29 72.384C386.802 72.384 387.234 72.56 387.586 72.912C387.938 73.264 388.114 73.712 388.114 74.256C388.114 74.832 387.938 75.296 387.586 75.648C387.234 75.968 386.802 76.128 386.29 76.128ZM387.346 81.936V108H385.186V81.936H387.346ZM426.08 81.408C429.056 81.408 431.488 82.368 433.376 84.288C435.264 86.176 436.208 88.992 436.208 92.736V108H434.096V92.88C434.096 89.776 433.344 87.408 431.84 85.776C430.368 84.112 428.336 83.28 425.744 83.28C423.056 83.28 420.896 84.208 419.264 86.064C417.632 87.92 416.816 90.608 416.816 94.128V108H414.704V92.88C414.704 89.776 413.952 87.408 412.448 85.776C410.976 84.112 408.944 83.28 406.352 83.28C403.664 83.28 401.504 84.208 399.872 86.064C398.24 87.92 397.424 90.608 397.424 94.128V108H395.264V81.936H397.424V87.6C398.16 85.552 399.344 84.016 400.976 82.992C402.64 81.936 404.544 81.408 406.688 81.408C409.056 81.408 411.088 82.032 412.784 83.28C414.512 84.496 415.696 86.304 416.336 88.704C416.944 86.304 418.128 84.496 419.888 83.28C421.648 82.032 423.712 81.408 426.08 81.408Z" fill="black"/>
<defs>
<filter id="filter0_d_0_1" x="41" y="55" width="89" height="83" filterUnits="userSpaceOnUse" color-interpolation-filters="sRGB">
<feFlood flood-opacity="0" result="BackgroundImageFix"/>
<feColorMatrix in="SourceAlpha" type="matrix" values="0 0 0 0 0 0 0 0 0 0 0 0 0 0 0 0 0 0 127 0" result="hardAlpha"/>
<feOffset dy="4"/>
<feGaussianBlur stdDeviation="2"/>
<feComposite in2="hardAlpha" operator="out"/>
<feColorMatrix type="matrix" values="0 0 0 0 0 0 0 0 0 0 0 0 0 0 0 0 0 0 0.25 0"/>
<feBlend mode="normal" in2="BackgroundImageFix" result="effect1_dropShadow_0_1"/>
<feBlend mode="normal" in="SourceGraphic" in2="effect1_dropShadow_0_1" result="shape"/>
</filter>
<filter id="filter1_d_0_1" x="40.8728" y="48.9734" width="89.1509" height="15.6825" filterUnits="userSpaceOnUse" color-interpolation-filters="sRGB">
<feFlood flood-opacity="0" result="BackgroundImageFix"/>
<feColorMatrix in="SourceAlpha" type="matrix" values="0 0 0 0 0 0 0 0 0 0 0 0 0 0 0 0 0 0 127 0" result="hardAlpha"/>
<feOffset dy="4"/>
<feGaussianBlur stdDeviation="2"/>
<feComposite in2="hardAlpha" operator="out"/>
<feColorMatrix type="matrix" values="0 0 0 0 0 0 0 0 0 0 0 0 0 0 0 0 0 0 0.25 0"/>
<feBlend mode="normal" in2="BackgroundImageFix" result="effect1_dropShadow_0_1"/>
<feBlend mode="normal" in="SourceGraphic" in2="effect1_dropShadow_0_1" result="shape"/>
</filter>
<filter id="filter2_d_0_1" x="44.1328" y="73.9634" width="81.0208" height="15.632" filterUnits="userSpaceOnUse" color-interpolation-filters="sRGB">
<feFlood flood-opacity="0" result="BackgroundImageFix"/>
<feColorMatrix in="SourceAlpha" type="matrix" values="0 0 0 0 0 0 0 0 0 0 0 0 0 0 0 0 0 0 127 0" result="hardAlpha"/>
<feOffset dy="4"/>
<feGaussianBlur stdDeviation="2"/>
<feComposite in2="hardAlpha" operator="out"/>
<feColorMatrix type="matrix" values="0 0 0 0 0 0 0 0 0 0 0 0 0 0 0 0 0 0 0.25 0"/>
<feBlend mode="normal" in2="BackgroundImageFix" result="effect1_dropShadow_0_1"/>
<feBlend mode="normal" in="SourceGraphic" in2="effect1_dropShadow_0_1" result="shape"/>
</filter>
<filter id="filter3_d_0_1" x="47.6687" y="87.9651" width="74.3463" height="15.5896" filterUnits="userSpaceOnUse" color-interpolation-filters="sRGB">
<feFlood flood-opacity="0" result="BackgroundImageFix"/>
<feColorMatrix in="SourceAlpha" type="matrix" values="0 0 0 0 0 0 0 0 0 0 0 0 0 0 0 0 0 0 127 0" result="hardAlpha"/>
<feOffset dy="4"/>
<feGaussianBlur stdDeviation="2"/>
<feComposite in2="hardAlpha" operator="out"/>
<feColorMatrix type="matrix" values="0 0 0 0 0 0 0 0 0 0 0 0 0 0 0 0 0 0 0.25 0"/>
<feBlend mode="normal" in2="BackgroundImageFix" result="effect1_dropShadow_0_1"/>
<feBlend mode="normal" in="SourceGraphic" in2="effect1_dropShadow_0_1" result="shape"/>
</filter>
</defs>
</svg>
